<svg xmlns="http://www.w3.org/2000/svg" viewBox="0 0 54.87 50.09"><defs><style>.cls-1{fill:#00573a;fill-rule:evenodd;}</style></defs><title>logo2</title><g id="Layer_2" data-name="Layer 2"><g id="Layer_1-2" data-name="Layer 1"><path class="cls-1" d="M13.44,29.86a30,30,0,0,1,6.86-5.7,5.36,5.36,0,0,0,.19.57,27.77,27.77,0,0,0-6.12,5.09,27.25,27.25,0,0,0,18.2-8.09,21.2,21.2,0,0,0-9.32,1.59,4,4,0,0,1,.07-.68A23,23,0,0,1,33.3,21h0q.32.77.59,1.53h0l.11.3h0l.1.3h0l.1.3h0l.1.3h0l.09.3h0l.09.3.08.29.08.29.08.29.07.29.07.29.06.29.06.29h0l.05.28h0l.05.28,0,.28,0,.28,0,.28,0,.28,0,.27,0,.27c0,.09,0,.18,0,.27s0,.18,0,.27,0,.18,0,.27,0,.18,0,.27,0,.18,0,.26,0,.18,0,.26,0,.17,0,.26,0,.17,0,.26l0,.26,0,.26,0,.25,0,.25,0,.25,0,.25,0,.25-.05.25L35,33l-.06.24-.07.24-.07.24-.08.24-.08.23-.09.23-.09.23-.1.23-.1.23-.11.23-.11.22-.12.22-.12.22-.13.22-.13.22-.14.21-.15.21-.15.21-.16.21-.16.21-.17.2-3.16,1.41-3.16,1.41c-5.65-.19-9.75-4.19-12.86-10.62"/><path class="cls-1" d="M39.74,30.16c-3.66,1.62-6.25-.47-6.94-3.46.59,2.07,2.65,3.56,5.49,2.39a5.09,5.09,0,0,0,2.37-7.38c-1.83-2.93-6,.65-4.4,2.37a.6.6,0,0,0,.86,0,.48.48,0,0,0-.16-.74c.13.29.12.41,0,.57a.36.36,0,0,1-.51,0c-.73-.71.07-1.53.93-1.56,1.78,0,2.13,3-.18,3.52a2.74,2.74,0,0,1-3.22-3.61c.81-3.45,4.51-4.89,6.87-3.53,3.52,2,3.25,9.52-1.07,11.43"/><path class="cls-1" d="M25.52,5.34c1,.09.95,2.11-.36,2.42C23,8.27,21.95,6.17,22.5,3.91c.62-2.52,3-4.55,5.58-3.72,3.41,1.1,5.88,6.58,1.1,12.48-2.16,2.67-7.86,8.3-6.45,12,.29.75.64.89.92.93.51.07.79-1-.13-.72.49-.73,1.27-.28,1.1.46-.43,1.81-2.57.91-3.28-.48C19,20.3,25.06,13.58,27.39,9c1.59-3.16.43-6.21-1.55-5.89S24,6.84,25.17,6.5a.73.73,0,0,0,.36-1.17"/><path class="cls-1" d="M28.15,50.09c10.27-1.75,22.67-9.14,22.67-23.94A22.51,22.51,0,0,0,43.2,9.4a20.19,20.19,0,0,1-2.6-2.17c-.3-.5,1.26-.6,1-.86,7,4.27,9,10.15,10.22,13.83,3.9,14-5.75,29.68-23.66,29.88"/><path class="cls-1" d="M33.9.73A3.64,3.64,0,0,0,35.36,5c1.28.94,3.1.45,3.83.32-.77-4.47-3.9-2-5.29-4.63"/><path class="cls-1" d="M42.31,7.89c-3.95-2-1.28-4.34-2.82-6.71,0,0,3.4.63,3.9,3.69s-1.08,3-1.08,3"/><path class="cls-1" d="M40.16,12c1.91.13,1.86,1.6,3.55,2.16s3.32-1,3.32-1c-.16-1.27-3.19-4.26-6.87-1.14"/><path class="cls-1" d="M47.53,6.45c.53,1.44-1.33,2.91-.88,4.5a5.36,5.36,0,0,0,1.72,2.55c1.06-.29,4.14-4.51-.84-7"/><path class="cls-1" d="M35.88,8c1.76.1,2.37,1.11,4.07,1.52S42.7,8.09,42.7,8.09,39.78,3.69,35.88,8"/><path class="cls-1" d="M45.37,5.83a1,1,0,1,1-1,1,1,1,0,0,1,1-1"/><path class="cls-1" d="M43.26,18.12c2.1.43,2.19,1.9,3.58,3.07a2.53,2.53,0,0,0,3.76-.57c.16-1.39-2.24-5.38-7.34-2.5"/><path class="cls-1" d="M52.73,13.47c.51,2.35-1.81,2.63-2.38,5-.49,2.09.81,3.09,1.77,3.85,2.16-.48,4.62-4.89.61-8.89"/><path class="cls-1" d="M50.88,12.59a1,1,0,1,1-1,1,1,1,0,0,1,1-1"/><path class="cls-1" d="M45.75,14.76a.89.89,0,1,1-.89.89.89.89,0,0,1,.89-.89"/><path class="cls-1" d="M21.85,2C12.91,5,4.05,12.17,4.05,24.67a22.51,22.51,0,0,0,7.62,16.75,20.16,20.16,0,0,1,2.6,2.17c.3.5-1.25.6-1,.86-7-4.27-9-10.15-10.22-13.83A23.45,23.45,0,0,1,22.4,1.1a7,7,0,0,0-.55.86"/><path class="cls-1" d="M21,50.09a3.64,3.64,0,0,0-1.46-4.31c-1.28-.94-3.1-.45-3.83-.32.77,4.47,3.9,2,5.29,4.63"/><path class="cls-1" d="M12.56,42.94c3.95,2,1.27,4.34,2.82,6.71,0,0-3.4-.63-3.9-3.69s1.08-3,1.08-3"/><path class="cls-1" d="M14.71,38.78c-1.91-.13-1.86-1.6-3.55-2.16s-3.32,1-3.32,1C8,38.9,11,41.89,14.71,38.78"/><path class="cls-1" d="M7.34,44.37c-.53-1.44,1.33-2.91.88-4.5A5.36,5.36,0,0,0,6.5,37.32c-1.06.29-4.14,4.51.84,7"/><path class="cls-1" d="M19,42.8c-1.76-.1-2.37-1.11-4.07-1.52s-2.75,1.45-2.75,1.45,2.92,4.4,6.82.07"/><path class="cls-1" d="M9.5,45a1,1,0,1,1,1-1,1,1,0,0,1-1,1"/><path class="cls-1" d="M11.62,32.7c-2.1-.43-2.19-1.9-3.58-3.07a2.53,2.53,0,0,0-3.76.57c-.16,1.39,2.24,5.38,7.34,2.5"/><path class="cls-1" d="M2.14,37.35C1.64,35,4,34.72,4.52,32.31c.49-2.09-.81-3.09-1.77-3.85-2.16.48-4.62,4.89-.61,8.89"/><path class="cls-1" d="M4,38.23a1,1,0,1,1,1-1,1,1,0,0,1-1,1"/><path class="cls-1" d="M9.13,36.06a.89.89,0,1,1,.89-.89.89.89,0,0,1-.89.89"/></g></g></svg>