<svg xmlns="http://www.w3.org/2000/svg" viewBox="0 0 99.99 47.64"><defs><style>.cls-1,.cls-2{fill:#00573a;}.cls-1{fill-rule:evenodd;}</style></defs><title>logo3</title><g id="Layer_2" data-name="Layer 2"><g id="Layer_1-2" data-name="Layer 1"><path class="cls-1" d="M96,2.44H92.67l-1,5.3h.94L93,5.5h2.14l.22-.86H93.18l.26-1.33h2.38ZM87.71,7.68a3.43,3.43,0,0,0,1,.15A2,2,0,0,0,90.79,6l.69-3.56h-.94l-.67,3.45c-.15.77-.4,1.08-1.13,1.08a3.79,3.79,0,0,1-.69-.11ZM87,7.74l1-5.3h-1l-2,2.88L84.2,2.43h-.94l-1,5.3h.93l.7-3.59h0c0,.28.22,1,.23,1.11s.39,1.48.39,1.48h.62l.94-1.45c0-.07.57-.89.67-1.14h0l-.69,3.59ZM85,0H98V5.1a5.11,5.11,0,0,1-5.1,5.1H79.94V5.1A5.11,5.11,0,0,1,85,0Z"/><path class="cls-2" d="M73.46,5.11a1.75,1.75,0,0,1,1.69,1.84,1.69,1.69,0,1,1-3.37,0,1.7,1.7,0,0,1,1.69-1.84m0-1.4a3.11,3.11,0,0,0-3.21,3.23,3.23,3.23,0,1,0,6.46,0A3.14,3.14,0,0,0,73.45,3.72Zm-6.8-1.46v1.6H65.49V5.18h1.16V7.86a2,2,0,0,0,2.23,2.27,3.44,3.44,0,0,0,1.27-.26l-.43-1.31a1.75,1.75,0,0,1-.74.19.77.77,0,0,1-.81-.88V5.18h1.72V3.85H68.18V2.09ZM65.25,4.48a3.33,3.33,0,0,0-2.42-.82c-1.13,0-2.62.5-2.62,1.94s1.4,1.84,2.57,1.93c.88.05,1.23.23,1.23.65s-.54.76-1.12.74a3.4,3.4,0,0,1-2.14-.87L60,9.15a3.63,3.63,0,0,0,2.87,1.11c1.77,0,2.67-.94,2.67-2,0-1.65-1.49-1.91-2.66-2-.79-.05-1.16-.28-1.16-.68s.4-.62,1.13-.62a2.09,2.09,0,0,1,1.54.55ZM54.85,6.22A1.67,1.67,0,0,1,56.59,5,1.42,1.42,0,0,1,58.2,6.22Zm4.82,1.27c.24-2.55-1.06-3.84-3.13-3.84a3.1,3.1,0,0,0-3.3,3.25,3.13,3.13,0,0,0,3.41,3.31,3.81,3.81,0,0,0,2.67-1l-1-1a2.56,2.56,0,0,1-1.66.58,1.65,1.65,0,0,1-1.85-1.32ZM48.56,3.84V10H50.1V6.77A1.43,1.43,0,0,1,51.65,5.2a1.53,1.53,0,0,1,1.11.4l.69-1.33a2.35,2.35,0,0,0-1.6-.59,1.83,1.83,0,0,0-1.75.88L50,3.84ZM44.92,6.19h.73V4.89H41.52c-.59,0-1.7-.25-1.7-1.15,0-.52.42-1.23,1.71-1.23.89,0,1.69.28,1.69,1.08H44.8c0-1.9-1.69-2.49-3.22-2.49s-3.35.77-3.36,2.64A1.86,1.86,0,0,0,39.4,5.53,2,2,0,0,0,38,7.37c0,2.18,1.57,2.79,3.5,2.79a2.8,2.8,0,0,0,2.52-1.23,1.5,1.5,0,0,0,1.66,1.16V8.43c-.57,0-.79-.44-.79-1Zm-3.49,0h1.91V7.47c0,.89-1.25,1.21-1.84,1.21-.92,0-1.84-.36-1.84-1.3C39.67,6.85,40.22,6.19,41.44,6.19Zm-11.2,0A1.67,1.67,0,0,1,32,5a1.42,1.42,0,0,1,1.61,1.21Zm4.82,1.27c.24-2.55-1.06-3.84-3.13-3.84a3.1,3.1,0,0,0-3.3,3.25A3.13,3.13,0,0,0,32,10.21a3.81,3.81,0,0,0,2.67-1l-1-1a2.56,2.56,0,0,1-1.66.58,1.65,1.65,0,0,1-1.85-1.32ZM23.4,6.22A1.67,1.67,0,0,1,25.14,5a1.42,1.42,0,0,1,1.61,1.21Zm4.82,1.27c.24-2.55-1.06-3.84-3.13-3.84a3.1,3.1,0,0,0-3.3,3.25,3.13,3.13,0,0,0,3.41,3.31,3.81,3.81,0,0,0,2.67-1l-1-1a2.56,2.56,0,0,1-1.66.58,1.65,1.65,0,0,1-1.85-1.32ZM19.55,10V5.28h1.82V3.93H19.55V3.51c0-.76.4-1.11.93-1.11a1.71,1.71,0,0,1,.94.33L22,1.59a3,3,0,0,0-1.61-.5A2.25,2.25,0,0,0,18,3.51v.42H16.85V5.28H18V10ZM15,10V5.28h1.82V3.93H15V3.51c0-.76.4-1.11.93-1.11a1.71,1.71,0,0,1,.94.33l.57-1.15a3,3,0,0,0-1.61-.5,2.25,2.25,0,0,0-2.37,2.43v.42H12.29V5.28h1.16V10ZM9.16,5.11a1.75,1.75,0,0,1,1.69,1.84,1.69,1.69,0,1,1-3.37,0A1.7,1.7,0,0,1,9.16,5.11Zm0-1.4A3.11,3.11,0,0,0,5.94,6.95a3.09,3.09,0,0,0,3.22,3.23A3.1,3.1,0,0,0,12.4,6.95,3.14,3.14,0,0,0,9.15,3.72ZM4.9,8.25a1.87,1.87,0,0,1-1.36.52A1.69,1.69,0,0,1,1.78,6.95,1.75,1.75,0,0,1,3.57,5.11a1.89,1.89,0,0,1,1.25.49l1-1a3,3,0,0,0-2.24-.92A3.08,3.08,0,0,0,.24,6.95a3.08,3.08,0,0,0,3.3,3.28,3.19,3.19,0,0,0,2.39-1Z"/><path class="cls-2" d="M89,30.66l-2.21-3.8c-2-3.65-4.9-4.61-8.53-3.54l.15.23L85.44,34l-7.5,10.77v.13c3.24,1,6.09.25,8.35-3.06L89,37.67l2.47,3.81c1.63,3,4.62,4,8.56,3.38v-.13L92.5,34l7.06-10.42v-.17c-3.62-.85-6.47,0-8.22,3.19Z"/><path class="cls-2" d="M0,17.32c0,4.14,6.28,4.14,6.28,0S0,13.18,0,17.32"/><path class="cls-2" d="M23.23,39.61C23,43.54,25,45,28.52,44.87v0l0,0V33.58c0-6.76-4.05-10.55-9.11-10.55a9.69,9.69,0,0,0-7.06,3.22L12,23.34c-3.16-.13-4.79,1.22-4.75,4.18V44.87c3.48.17,5.47-1.33,5.27-5.27V33.88c0-3.27,2.22-6,5.49-6s5.19,2.48,5.19,5.75Z"/><path class="cls-2" d="M47.8,33.61a5.89,5.89,0,0,0-6.09-5.79,6.13,6.13,0,0,0-6.23,6.28,6.17,6.17,0,1,0,12.33,0q0-.17,0-.34h0Zm-18-13.91c-.2-4,1.82-5.48,5.32-5.3V26.3c1.26-2.22,4.79-3.44,7.06-3.44,6.14,0,10.73,3.67,10.93,10.76h0v.15c0,.11,0,.23,0,.34,0,7.06-4.75,11.24-11.07,11.24a7.82,7.82,0,0,1-6.93-3.44c0,2.1-1.49,3-4,3H29.82V19.7Z"/><path class="cls-2" d="M5.8,23.29v16.3C6,43.54,4,45,.48,44.87V28.57c-.2-3.94,1.82-5.45,5.32-5.27"/><path class="cls-1" d="M56.08,26.94l8.46,4.55a3.77,3.77,0,0,1,1.68,3.07V46.2c0,1.19-.76,1.76-1.68,1.26l-8.46-4.55a3.77,3.77,0,0,1-1.68-3.07V28.2c0-1.19.76-1.76,1.68-1.26"/><path class="cls-1" d="M77.58,26.94l-8.46,4.55a3.77,3.77,0,0,0-1.68,3.07V46.2c0,1.19.76,1.76,1.68,1.26l8.46-4.55a3.77,3.77,0,0,0,1.68-3.07V28.2c0-1.19-.76-1.76-1.68-1.26"/><path class="cls-1" d="M68.33,20.79l5.88,3c-1.75,1-3.71,1.83-4.21,2.12a5.23,5.23,0,0,0-3.27.39h0l-.34.17c-1.35.71-1.75,1.69-.89,2.18a4.83,4.83,0,0,0,4-.4l.36-.21h0c.87-.57,1.19-1.24.84-1.7l4.47-2.05,1.11.58c.83.43.69,1.2-.31,1.72L68.64,30.4a4.1,4.1,0,0,1-3.32.16l-5.66-2.93,3.6-2,0,0a2.68,2.68,0,0,0,2.46-.1h0l.08-.05c.51-.36,2.34-1.61,3.15-2.21,0,0,0-.07,0-.1h0a.16.16,0,0,0-.16,0c-.74.4-2,1.15-2.94,1.7a.28.28,0,0,1-.27,0h0c-.07-.05-.09-.13,0-.17.92-.6,2-1.3,2.69-1.76,0,0,0-.07,0-.1h0a.16.16,0,0,0-.15,0c-.77.39-2.08,1.12-3.1,1.64a.28.28,0,0,1-.27,0,.15.15,0,0,1-.06-.09.09.09,0,0,1,0-.08c1-.57,2.13-1.26,2.83-1.7,0,0,0-.07,0-.1h0a.16.16,0,0,0-.15,0c-.8.37-2.21,1.08-3.26,1.58a.28.28,0,0,1-.26,0c-.08-.06-.09-.14,0-.18,1-.55,2.24-1.21,3-1.63,0,0,0-.07,0-.1a.16.16,0,0,0-.15,0c-.91.38-2.4,1-3.1,1.36h0l-.36.16-.1,0h0c-.76.38-1,1-.49,1.55L58.52,27l-1.14-.59c-.83-.43-.69-1.2.31-1.72L65,21a4.1,4.1,0,0,1,3.32-.16"/></g></g></svg>