<svg xmlns="http://www.w3.org/2000/svg" viewBox="0 0 161.29 50.09"><defs><style>.cls-1,.cls-2{fill:#00573a;}.cls-1{fill-rule:evenodd;}</style></defs><title>logo1</title><g id="Layer_2" data-name="Layer 2"><g id="Layer_1-2" data-name="Layer 1"><path class="cls-1" d="M157.34,4.88H154l-1,5.3h.94l.43-2.23h2.14l.22-.86h-2.19l.26-1.33h2.38ZM149,10.12a3.43,3.43,0,0,0,1,.15,2,2,0,0,0,2.09-1.84l.69-3.56h-.94l-.67,3.45c-.15.77-.4,1.08-1.13,1.08a3.79,3.79,0,0,1-.69-.11Zm-.72.06,1-5.3h-1l-2,2.88-.88-2.88h-.94l-1,5.3h.93l.7-3.59h0c0,.28.22,1,.23,1.11s.39,1.48.39,1.48h.62l.94-1.45c0-.07.57-.89.67-1.14h0l-.69,3.59Zm-1.95-7.74h12.95v5.1a5.11,5.11,0,0,1-5.1,5.1H141.24V7.54A5.11,5.11,0,0,1,146.34,2.44Z"/><path class="cls-2" d="M134.76,7.55a1.75,1.75,0,0,1,1.69,1.84,1.69,1.69,0,1,1-3.37,0,1.7,1.7,0,0,1,1.69-1.84m0-1.4a3.11,3.11,0,0,0-3.21,3.23,3.23,3.23,0,1,0,6.46,0A3.14,3.14,0,0,0,134.75,6.16Zm-6.8-1.46v1.6h-1.16V7.62h1.16V10.3a2,2,0,0,0,2.23,2.27,3.44,3.44,0,0,0,1.27-.26L131,11a1.75,1.75,0,0,1-.74.19.77.77,0,0,1-.81-.88V7.62h1.72V6.29h-1.71V4.53Zm-1.39,2.23a3.33,3.33,0,0,0-2.42-.82c-1.13,0-2.62.5-2.62,1.94s1.4,1.84,2.57,1.93c.88.05,1.23.23,1.23.65s-.54.76-1.12.74a3.4,3.4,0,0,1-2.14-.87l-.76,1.09a3.63,3.63,0,0,0,2.87,1.11c1.77,0,2.67-.94,2.67-2,0-1.65-1.49-1.91-2.66-2C123.39,8.62,123,8.4,123,8s.4-.62,1.13-.62a2.09,2.09,0,0,1,1.54.55Zm-10.4,1.74a1.67,1.67,0,0,1,1.74-1.21,1.42,1.42,0,0,1,1.61,1.21ZM121,9.93c.24-2.55-1.06-3.84-3.13-3.84a3.1,3.1,0,0,0-3.3,3.25,3.13,3.13,0,0,0,3.41,3.31,3.81,3.81,0,0,0,2.67-1l-1-1a2.56,2.56,0,0,1-1.66.58,1.65,1.65,0,0,1-1.85-1.32ZM109.86,6.28v6.2h1.54V9.21a1.43,1.43,0,0,1,1.55-1.57,1.53,1.53,0,0,1,1.11.4l.69-1.33a2.35,2.35,0,0,0-1.6-.59A1.83,1.83,0,0,0,111.4,7l-.11-.72Zm-3.64,2.35h.73V7.33h-4.13c-.59,0-1.7-.25-1.7-1.15,0-.52.42-1.23,1.71-1.23.89,0,1.69.28,1.69,1.08h1.57c0-1.9-1.69-2.49-3.22-2.49s-3.35.77-3.36,2.64A1.86,1.86,0,0,0,100.69,8a2,2,0,0,0-1.36,1.84c0,2.18,1.57,2.79,3.5,2.79a2.8,2.8,0,0,0,2.52-1.23A1.5,1.5,0,0,0,107,12.52V10.88c-.57,0-.79-.44-.79-1Zm-3.49,0h1.91V9.91c0,.89-1.25,1.21-1.84,1.21-.92,0-1.84-.36-1.84-1.3C101,9.29,101.51,8.64,102.73,8.64Zm-11.2,0a1.67,1.67,0,0,1,1.74-1.21,1.42,1.42,0,0,1,1.61,1.21Zm4.82,1.27c.24-2.55-1.06-3.84-3.13-3.84a3.1,3.1,0,0,0-3.3,3.25,3.13,3.13,0,0,0,3.41,3.31,3.81,3.81,0,0,0,2.67-1l-1-1a2.56,2.56,0,0,1-1.66.58,1.65,1.65,0,0,1-1.85-1.32ZM84.7,8.66a1.67,1.67,0,0,1,1.74-1.21A1.42,1.42,0,0,1,88,8.66Zm4.82,1.27c.24-2.55-1.06-3.84-3.13-3.84a3.1,3.1,0,0,0-3.3,3.25,3.13,3.13,0,0,0,3.41,3.31,3.81,3.81,0,0,0,2.67-1l-1-1a2.56,2.56,0,0,1-1.66.58,1.65,1.65,0,0,1-1.85-1.32Zm-8.68,2.55V7.72h1.82V6.37H80.84V6c0-.76.4-1.11.93-1.11a1.71,1.71,0,0,1,.94.33L83.28,4a3,3,0,0,0-1.61-.5A2.25,2.25,0,0,0,79.31,6v.42H78.15V7.72h1.16v4.77Zm-4.56,0V7.72H78.1V6.37H76.28V6c0-.76.4-1.11.93-1.11a1.71,1.71,0,0,1,.94.33L78.72,4a3,3,0,0,0-1.61-.5A2.25,2.25,0,0,0,74.74,6v.42H73.59V7.72h1.16v4.77ZM70.46,7.55a1.75,1.75,0,0,1,1.69,1.84,1.69,1.69,0,1,1-3.37,0A1.7,1.7,0,0,1,70.46,7.55Zm0-1.4a3.11,3.11,0,0,0-3.21,3.23,3.23,3.23,0,1,0,6.46,0A3.14,3.14,0,0,0,70.45,6.16ZM66.2,10.69a1.87,1.87,0,0,1-1.36.52,1.69,1.69,0,0,1-1.76-1.81,1.75,1.75,0,0,1,1.79-1.84A1.89,1.89,0,0,1,66.11,8l1-1a3,3,0,0,0-2.24-.92,3.08,3.08,0,0,0-3.3,3.28,3.08,3.08,0,0,0,3.3,3.28,3.19,3.19,0,0,0,2.39-1Z"/><path class="cls-2" d="M150.26,33.1l-2.21-3.8c-2-3.65-4.9-4.61-8.53-3.54l.15.23,7.06,10.42-7.5,10.77v.13c3.24,1,6.09.25,8.35-3.06l2.68-4.13,2.47,3.81c1.63,3,4.62,4,8.56,3.38v-.13l-7.5-10.77L160.85,26v-.17c-3.62-.85-6.47,0-8.22,3.19Z"/><path class="cls-2" d="M61.3,19.76c0,4.14,6.28,4.14,6.28,0s-6.28-4.14-6.28,0"/><path class="cls-2" d="M84.53,42c-.19,3.94,1.81,5.43,5.29,5.26v0l0,0V36c0-6.76-4.05-10.55-9.11-10.55a9.69,9.69,0,0,0-7.06,3.22l-.35-2.92C70.17,25.64,68.54,27,68.58,30V47.31C72.06,47.48,74,46,73.85,42V36.32c0-3.27,2.22-6,5.49-6s5.19,2.48,5.19,5.75Z"/><path class="cls-2" d="M109.1,36.05A5.89,5.89,0,0,0,103,30.27a6.13,6.13,0,0,0-6.23,6.28,6.17,6.17,0,1,0,12.33,0q0-.17,0-.34h0Zm-18-13.91c-.2-4,1.82-5.48,5.32-5.3v11.9c1.26-2.22,4.79-3.44,7.06-3.44,6.14,0,10.73,3.67,10.93,10.76h0v.15c0,.11,0,.23,0,.34,0,7.06-4.75,11.24-11.07,11.24a7.82,7.82,0,0,1-6.93-3.44c0,2.1-1.49,3-4,3H91.11V22.15Z"/><path class="cls-2" d="M67.09,25.73V42c.2,3.95-1.82,5.45-5.32,5.27V31c-.2-3.94,1.82-5.45,5.32-5.27"/><path class="cls-1" d="M117.37,29.38l8.46,4.55A3.77,3.77,0,0,1,127.51,37V48.64c0,1.19-.76,1.76-1.68,1.26l-8.46-4.55a3.77,3.77,0,0,1-1.68-3.07V30.64c0-1.19.76-1.76,1.68-1.26"/><path class="cls-1" d="M138.87,29.38l-8.46,4.55A3.77,3.77,0,0,0,128.74,37V48.64c0,1.19.76,1.76,1.68,1.26l8.46-4.55a3.77,3.77,0,0,0,1.68-3.07V30.64c0-1.19-.76-1.76-1.68-1.26"/><path class="cls-1" d="M129.63,23.24l5.88,3c-1.75,1-3.71,1.83-4.21,2.12a5.23,5.23,0,0,0-3.27.39h0l-.34.17c-1.35.71-1.75,1.69-.89,2.18a4.83,4.83,0,0,0,4-.4l.36-.21h0c.87-.57,1.19-1.24.84-1.7l4.47-2.05,1.11.58c.83.43.69,1.2-.31,1.72l-7.32,3.79a4.1,4.1,0,0,1-3.32.16L121,30.08l3.6-2,0,0a2.68,2.68,0,0,0,2.46-.1h0l.08-.05c.51-.36,2.34-1.61,3.15-2.21,0,0,0-.07,0-.1h0a.16.16,0,0,0-.16,0c-.74.4-2,1.15-2.94,1.7a.28.28,0,0,1-.27,0h0c-.07-.05-.09-.13,0-.17.92-.6,2-1.3,2.69-1.76,0,0,0-.07,0-.1h0a.16.16,0,0,0-.15,0c-.77.39-2.08,1.12-3.1,1.64a.28.28,0,0,1-.27,0,.15.15,0,0,1-.06-.09.09.09,0,0,1,0-.08c1-.57,2.13-1.26,2.83-1.7,0,0,0-.07,0-.1h0a.16.16,0,0,0-.15,0c-.8.37-2.21,1.08-3.26,1.58a.28.28,0,0,1-.26,0c-.08-.06-.09-.14,0-.18,1-.55,2.24-1.21,3-1.63,0,0,0-.07,0-.1a.16.16,0,0,0-.15,0c-.91.38-2.4,1-3.1,1.36h0l-.36.16-.1,0h0c-.76.38-1,1-.49,1.55l-4.08,1.95-1.14-.59c-.83-.43-.69-1.2.31-1.72l7.32-3.79a4.1,4.1,0,0,1,3.32-.16"/><path class="cls-1" d="M13.44,29.86a30,30,0,0,1,6.86-5.7,5.36,5.36,0,0,0,.19.57,27.77,27.77,0,0,0-6.12,5.09,27.25,27.25,0,0,0,18.2-8.09,21.2,21.2,0,0,0-9.32,1.59,4,4,0,0,1,.07-.68A23,23,0,0,1,33.3,21h0q.32.77.59,1.53h0l.11.3h0l.1.3h0l.1.3h0l.1.3h0l.09.3h0l.09.3.08.29.08.29.08.29.07.29.07.29.06.29.06.29h0l.05.28h0l.05.28,0,.28,0,.28,0,.28,0,.28,0,.27,0,.27c0,.09,0,.18,0,.27s0,.18,0,.27,0,.18,0,.27,0,.18,0,.27,0,.18,0,.26,0,.18,0,.26,0,.17,0,.26,0,.17,0,.26l0,.26,0,.26,0,.25,0,.25,0,.25,0,.25,0,.25-.05.25L35,33l-.06.24-.07.24-.07.24-.08.24-.08.23-.09.23-.09.23-.1.23-.1.23-.11.23-.11.22-.12.22-.12.22-.13.22-.13.22-.14.21-.15.21-.15.21-.16.21-.16.21-.17.2-3.16,1.41-3.16,1.41c-5.65-.19-9.75-4.19-12.86-10.62"/><path class="cls-1" d="M39.74,30.16c-3.66,1.62-6.25-.47-6.94-3.46.59,2.07,2.65,3.56,5.49,2.39a5.09,5.09,0,0,0,2.37-7.38c-1.83-2.93-6,.65-4.4,2.37a.6.6,0,0,0,.86,0,.48.48,0,0,0-.16-.74c.13.29.12.41,0,.57a.36.36,0,0,1-.51,0c-.73-.71.07-1.53.93-1.56,1.78,0,2.13,3-.18,3.52a2.74,2.74,0,0,1-3.22-3.61c.81-3.45,4.51-4.89,6.87-3.53,3.52,2,3.25,9.52-1.07,11.43"/><path class="cls-1" d="M25.52,5.34c1,.09.95,2.11-.36,2.42C23,8.27,21.95,6.17,22.5,3.91c.62-2.52,3-4.55,5.58-3.72,3.41,1.1,5.88,6.58,1.1,12.48-2.16,2.67-7.86,8.3-6.45,12,.29.75.64.89.92.93.51.07.79-1-.13-.72.49-.73,1.27-.28,1.1.46-.43,1.81-2.57.91-3.28-.48C19,20.3,25.06,13.58,27.39,9c1.59-3.16.43-6.21-1.55-5.89S24,6.84,25.17,6.5a.73.73,0,0,0,.36-1.17"/><path class="cls-1" d="M28.15,50.09c10.27-1.75,22.67-9.14,22.67-23.94A22.51,22.51,0,0,0,43.2,9.4a20.19,20.19,0,0,1-2.6-2.17c-.3-.5,1.26-.6,1-.86,7,4.27,9,10.15,10.22,13.83,3.9,14-5.75,29.68-23.66,29.88"/><path class="cls-1" d="M33.9.73A3.64,3.64,0,0,0,35.36,5c1.28.94,3.1.45,3.83.32-.77-4.47-3.9-2-5.29-4.63"/><path class="cls-1" d="M42.31,7.89c-3.95-2-1.28-4.34-2.82-6.71,0,0,3.4.63,3.9,3.69s-1.08,3-1.08,3"/><path class="cls-1" d="M40.16,12c1.91.13,1.86,1.6,3.55,2.16s3.32-1,3.32-1c-.16-1.27-3.19-4.26-6.87-1.14"/><path class="cls-1" d="M47.53,6.45c.53,1.44-1.33,2.91-.88,4.5a5.36,5.36,0,0,0,1.72,2.55c1.06-.29,4.14-4.51-.84-7"/><path class="cls-1" d="M35.88,8c1.76.1,2.37,1.11,4.07,1.52S42.7,8.09,42.7,8.09,39.78,3.69,35.88,8"/><path class="cls-1" d="M45.37,5.83a1,1,0,1,1-1,1,1,1,0,0,1,1-1"/><path class="cls-1" d="M43.26,18.12c2.1.43,2.19,1.9,3.58,3.07a2.53,2.53,0,0,0,3.76-.57c.16-1.39-2.24-5.38-7.34-2.5"/><path class="cls-1" d="M52.73,13.47c.51,2.35-1.81,2.63-2.38,5-.49,2.09.81,3.09,1.77,3.85,2.16-.48,4.62-4.89.61-8.89"/><path class="cls-1" d="M50.88,12.59a1,1,0,1,1-1,1,1,1,0,0,1,1-1"/><path class="cls-1" d="M45.75,14.76a.89.89,0,1,1-.89.89.89.89,0,0,1,.89-.89"/><path class="cls-1" d="M21.85,2C12.91,5,4.05,12.17,4.05,24.67a22.51,22.51,0,0,0,7.62,16.75,20.16,20.16,0,0,1,2.6,2.17c.3.5-1.25.6-1,.86-7-4.27-9-10.15-10.22-13.83A23.45,23.45,0,0,1,22.4,1.1a7,7,0,0,0-.55.86"/><path class="cls-1" d="M21,50.09a3.64,3.64,0,0,0-1.46-4.31c-1.28-.94-3.1-.45-3.83-.32.77,4.47,3.9,2,5.29,4.63"/><path class="cls-1" d="M12.56,42.94c3.95,2,1.27,4.34,2.82,6.71,0,0-3.4-.63-3.9-3.69s1.08-3,1.08-3"/><path class="cls-1" d="M14.71,38.78c-1.91-.13-1.86-1.6-3.55-2.16s-3.32,1-3.32,1C8,38.9,11,41.89,14.71,38.78"/><path class="cls-1" d="M7.34,44.37c-.53-1.44,1.33-2.91.88-4.5A5.36,5.36,0,0,0,6.5,37.32c-1.06.29-4.14,4.51.84,7"/><path class="cls-1" d="M19,42.8c-1.76-.1-2.37-1.11-4.07-1.52s-2.75,1.45-2.75,1.45,2.92,4.4,6.82.07"/><path class="cls-1" d="M9.5,45a1,1,0,1,1,1-1,1,1,0,0,1-1,1"/><path class="cls-1" d="M11.62,32.7c-2.1-.43-2.19-1.9-3.58-3.07a2.53,2.53,0,0,0-3.76.57c-.16,1.39,2.24,5.38,7.34,2.5"/><path class="cls-1" d="M2.14,37.35C1.64,35,4,34.72,4.52,32.31c.49-2.09-.81-3.09-1.77-3.85-2.16.48-4.62,4.89-.61,8.89"/><path class="cls-1" d="M4,38.23a1,1,0,1,1,1-1,1,1,0,0,1-1,1"/><path class="cls-1" d="M9.13,36.06a.89.89,0,1,1,.89-.89.89.89,0,0,1-.89.89"/></g></g></svg>